<?xml version="1.0" encoding="UTF-8"?>
<svg id="Layer_1" xmlns="http://www.w3.org/2000/svg" version="1.1" viewBox="0 0 26 26">
  <!-- Generator: Adobe Illustrator 30.1.0, SVG Export Plug-In . SVG Version: 2.1.1 Build 136)  -->
  <defs>
    <style>
      .st0 {
        fill: #fff;
      }
    </style>
  </defs>
  <path class="st0" d="M14.89,6.97c.16-.59-.16-1.18-.77-1.28-.27-.04-.53-.04-.8-.03h-.35s-6.16.01-6.16.01l-.92-.03c-.42-.01-1,.03-1.29.37-.17.2-.23.44-.22.71,0,.41.28.8.68.9.3.08.59.06.9.05h6.85c.69,0,1.83.21,2.08-.71Z"/>
  <path class="st0" d="M9.91,20.9c.34.08.83-.23,1.15-.37l.95-.42,2.22-1c-.07-.15-.19-.22-.29-.33-.44-.46-.89-.9-1.36-1.34-.39-.37-.76-.73-1.13-1.12-.21-.22-.43-.43-.68-.63l-1.09,4.09c-.06.23-.12.44-.11.67.01.21.13.41.34.45ZM10.66,18.42l.41-1.51c.16.07.24.18.35.29l1.16,1.17.31.28c.07.07.13.14.17.25l-.81.38c-.18.08-.34.16-.51.22-.16.06-.31.02-.43-.1l-.57-.61c-.09-.1-.12-.23-.08-.37Z"/>
  <path class="st0" d="M12.21,11.66l.95-1.15c.17-.21.33-.4.49-.63h-.6s-1.65-.02-1.65-.02h-1.24s-2.77.01-2.77.01h-2.12c-.3.02-.57.18-.73.42-.25.4-.2.92.11,1.27.17.2.41.28.67.29h.44s3.46,0,3.46,0h1.44s1.06.03,1.06.03c.2,0,.36-.09.49-.24Z"/>
  <path class="st0" d="M9.27,15.98c.07-.16.14-.3.22-.45l.56-1.05c.08-.16.16-.3.2-.49h-4.83c-.22,0-.45.04-.62.17-.54.39-.55,1.21-.04,1.63.31.25.79.22,1.15.21.31,0,.61,0,.92,0h.68s1.19.01,1.19.01l.58-.02Z"/>
  <path class="st0" d="M5.06,18.22c-.24.05-.43.22-.54.43-.2.37-.17.83.08,1.17.18.23.43.35.73.35h2.69c.07,0,.12,0,.18-.01.02-.19.06-.36.11-.53l.26-.92c.05-.17.09-.34.09-.53h-.52s-2.33,0-2.33,0c-.26,0-.5,0-.75.05Z"/>
  <path class="st0" d="M24.82,4.85c-.07-.15-.58-.62-.73-.77l-1.06-1.05-.34-.33c-.44-.42-1.05-.33-1.43.12l-1.15,1.38c.05.09.09.14.16.21l3.33,3.24,1.15-1.42c.09-.12.14-.25.19-.38.02-.05.03-.09.06-.13v-.53l-.18-.35ZM24.08,5.52c-.17.24-.35.46-.56.68-.09-.05-.14-.1-.21-.16l-1.63-1.63-.26-.26c.16-.27.35-.51.59-.73l1.39,1.35.62.6s.08.11.06.14Z"/>
  <path class="st0" d="M20.3,7.77l-.71-.7c-.33-.33-.64-.67-1.01-.97l-3.65,4.45-3.13,3.83-.6.76,1.23,1.23,1.98,1.97c.08.08.16.15.25.22l.15-.16,3.14-3.83.75-.9,1.35-1.68,2-2.47-.83-.83-.92-.91ZM17.74,10.23l-4.28,5.21c-.25.09-.52-.17-.59-.41-.04-.14,0-.24.09-.35l1.68-2.06,2.24-2.74c.11-.13.26-.4.51-.31.25.09.47.39.36.65ZM19.17,8.47c-.11.18-.25.34-.4.49-.1.1-.25.14-.38.03-.22-.17-.42-.37-.25-.65.12-.18.25-.34.41-.48.23-.22.55.1.65.34.04.09.02.19-.03.27Z"/>
  <path class="st0" d="M22.86,7.66l-.82-.81-.57-.56-.93-.93c-.12-.12-.22-.23-.35-.34-.15-.13-.27-.28-.44-.39l-.71.86c-.05.06-.09.12-.1.2l3.45,3.39c.11-.08.19-.18.27-.29.21-.28.42-.46.57-.76-.13-.14-.25-.25-.38-.37Z"/>
  <path class="st0" d="M18.31,18.67v-1.62s-.02-.57-.02-.57c0-.09-.17.13-.17.12l-1.5,1.83c-.07.08-.14.18-.14.28-.03.41-.03.81-.02,1.22v.66s.02.58.02.58v.72c.01.24.01.48,0,.72,0,.12.02.24-.02.35l-1.02.02h-2.95s-2.12,0-2.12,0h-1.28s-1.64.01-1.64.01h-3.62c-.33,0-.64,0-.97-.04v-1.73s0-18.17,0-18.17c.27-.03.53-.03.8-.03h4.98s2.06,0,2.06,0h2.26s2.21,0,2.21,0h.91c.13.01.26.01.39.03v2.76s.02.56.02.56l1.22-1.46c.14-.17.27-.33.42-.49.1-.1.16-.25.16-.39v-.94c0-.23-.04-.45-.1-.67-.1-.36-.31-.65-.57-.91-.19-.18-.41-.3-.66-.38-.22-.07-.44-.07-.68-.1H3.73s-.03-.01-.03-.02h-.69c-.75-.02-1.37.32-1.74.99-.06.11-.24.57-.24.68,0,.01,0,.02.02.03l-.04.02v20.39h.04s-.02.02-.02.03c0,.19.11.6.2.77.12.25.31.5.53.68.47.39.93.39,1.51.39.01,0,.02,0,.03.01h.16s.05-.03.08-.03c.25.03.49-.01.75-.01h12.03c.28,0,.55-.07.8-.16.65-.24,1.03-.85,1.12-1.52.04-.3.06-.59.06-.89v-1.22s-.01-.56-.01-.56v-1.28s0-.66,0-.66Z"/>
</svg>