<?xml version="1.0" encoding="UTF-8"?>
<svg id="Layer_1" xmlns="http://www.w3.org/2000/svg" version="1.1" viewBox="0 0 26 26">
  <!-- Generator: Adobe Illustrator 30.1.0, SVG Export Plug-In . SVG Version: 2.1.1 Build 136)  -->
  <defs>
    <style>
      .st0 {
        fill: #fff;
      }
    </style>
  </defs>
  <g id="KTL1fz.tif">
    <g>
      <g>
        <path class="st0" d="M22.23,21.95h-.28l-8.48-5.2,4.08-2.53c.65.3,1.13.62,1.7.94.23.52.63.89.77,1.5-.83-.23-2.74-2.27-2.94-.69.19-.14.3-.29.48-.3.21-.02.37.09.57.2l1.87,1.1c-.17.18-.25.47-.52.56l-2.46-1.47c.79,1.55,3.22,2.63,4.56,3.49l.52,1.16c.21.46.34.84.14,1.26Z"/>
        <path class="st0" d="M4.05,21.95h-.14c-.71-.55.24-1.61.62-2.44.93-.62,4.29-2.37,4.4-3.4-.91.37-1.54.97-2.4,1.38-.2.09-.5-.46-.37-.58.49-.44,1.18-.65,1.73-1.05.31-.23.59-.25.98-.1-.3-1.17-2.08.7-2.92.87,1.13-1.93.31-1.21,2.48-2.41l4.1,2.53-8.49,5.2Z"/>
      </g>
      <g>
        <path class="st0" d="M0,8.67v-.14c.62-.56,1.94-4.83,2.89-4.3l-1.99,4.18,11.43,6.92c.25.15.48.23.5.44.03.27.12.53-.14.77L0,8.67Z"/>
        <path class="st0" d="M26,8.53v.14l-12.73,7.89c-.19-.18-.27-.79-.02-.94l11.82-7.2-2.01-4.36h.14c.37.09.69.21.95.38l1.61,3.04.24,1.05Z"/>
        <path class="st0" d="M21.6,7.66c-.73.72-1.61,1.06-2.54,1.34-2.07.62-4.89,2.08-6.09,4.12-.37-.87-.97-1.32-1.6-1.84-2.94-2.43-4.37-1.66-6.97-3.56l1.62-3.25c.86.49,1.73.82,2.67,1.1,1.73.73,3.54,1.48,4.33,3.34.99-2.72,4.81-3.19,6.96-4.44l1.62,3.19Z"/>
        <path class="st0" d="M13.24,13.74c2.06-2.62,3.38-3.45,6.42-4.42.92-.3,1.77-.63,2.54-1.36l-1.55-3.2c.42.04,1.05.09,1.25.45l1.94,3.45-9.59,5.77c-.39-.16-.61-.41-1.01-.7Z"/>
        <path class="st0" d="M12.75,13.74c-.43.22-.56.48-.92.73L2.23,8.65c.66-1.24,1.19-2.35,1.87-3.44.21-.35.84-.41,1.25-.46l-1.52,3.13c.65.74,1.57,1.14,2.51,1.43,3.11.96,4.5,1.95,6.41,4.42Z"/>
      </g>
    </g>
  </g>
</svg>