<?xml version="1.0" encoding="UTF-8"?>
<svg id="Layer_1" xmlns="http://www.w3.org/2000/svg" version="1.1" viewBox="0 0 26 26">
  <!-- Generator: Adobe Illustrator 30.1.0, SVG Export Plug-In . SVG Version: 2.1.1 Build 136)  -->
  <path fill="#fff" d="M25.89,22.04l-5.74-13.9c-.3-.72-1.12-1.06-1.83-.76-.34.14-.62.42-.76.76l-5.74,13.9c-.3.71.04,1.54.75,1.84.71.3,1.54-.04,1.84-.75,0,0,0,0,0-.01l1.17-2.83h6.55l1.17,2.83c.22.53.73.87,1.3.87.77,0,1.4-.63,1.4-1.4,0-.18-.04-.37-.11-.53h0ZM16.74,17.47l2.12-5.12,2.12,5.12h-4.23Z"/>
  <path fill="#fff" d="M12.94,18.19c.39-.54.27-1.29-.27-1.68-.01,0-.82-.61-2-1.9,2.17-2.94,3.41-6.29,3.91-7.87h1.77c.67,0,1.21-.54,1.21-1.21s-.54-1.21-1.21-1.21h-6.36v-1.1c0-.67-.54-1.21-1.21-1.21s-1.21.54-1.21,1.21v1.1H1.21c-.67,0-1.21.54-1.21,1.21s.54,1.21,1.21,1.21h10.82c-.52,1.48-1.48,3.81-2.95,5.94-1.72-2.29-2.36-3.77-2.37-3.78-.26-.61-.98-.89-1.59-.63-.6.26-.89.95-.64,1.56.03.08.8,1.88,2.9,4.6.05.07.1.13.15.19-2.15,2.43-4.26,3.94-5.15,4.43-.59.32-.8,1.05-.48,1.64.32.59,1.05.8,1.64.48h0c.12-.06,2.67-1.47,5.57-4.69,1.24,1.32,2.08,1.94,2.14,1.98.54.39,1.29.27,1.69-.27h0s0,0,0,0Z"/>
</svg>