<?xml version="1.0" encoding="UTF-8"?>
<svg id="Layer_1" xmlns="http://www.w3.org/2000/svg" version="1.1" viewBox="0 0 26 26">
  <!-- Generator: Adobe Illustrator 30.1.0, SVG Export Plug-In . SVG Version: 2.1.1 Build 136)  -->
  <defs>
    <style>
      .st0 {
        fill: #fff;
      }
    </style>
  </defs>
  <path class="st0" d="M23.6,20.42c-.58-1.63-4.68-3.61-5.92-3.47-1.6.18-2.99,1.13-4.69,1.15-1.69.02-3.09-1.02-4.68-1.15-1.41-.11-5.49,1.87-6.04,3.69-.52,1.73-.83,3.43-.9,5.35h23.24c-.13-1.96-.37-3.74-1.02-5.58Z"/>
  <path class="st0" d="M7.13,8.09c.25,1.84.14,3.46.5,5.13.53,2.43,2.78,3.91,5.17,3.97,2.64.07,5.38-1.45,5.63-4.24l.42-4.86c-5.21-1.62-6.51-1.6-11.72,0Z"/>
  <path class="st0" d="M19.93,7.49c0-2.07-.15-5.08-2.09-6.2-2.95-1.71-6.59-1.73-9.57-.07-2.05,1.14-2.33,4.37-2.11,6.24,6.71-1.93,7.13-1.86,13.77.03Z"/>
  <path class="st0" d="M6.59,11.77l-.22-3.09c-.02-.34-.4-.32-.52-.23-1.06.78-.29,2.96.74,3.32Z"/>
  <path class="st0" d="M19.72,8.5c-.24,1.06-.22,2.11-.29,3.23,1-.57,1.35-1.74,1.06-2.9-.08-.33-.71-.59-.76-.34Z"/>
</svg>