<?xml version="1.0" encoding="UTF-8"?>
<svg id="Layer_1" xmlns="http://www.w3.org/2000/svg" version="1.1" viewBox="0 0 24 24">
  <!-- Generator: Adobe Illustrator 30.1.0, SVG Export Plug-In . SVG Version: 2.1.1 Build 136)  -->
  <defs>
    <style>
      .st0 {
        fill: #fff;
      }
    </style>
  </defs>
  <path class="st0" d="M12.35,13.36c-.14.55.2,1.11.76,1.25,1.33.33,2.38,1.36,2.72,2.68.51,1.99-.68,4.02-2.67,4.53s-4.02-.68-4.53-2.67c-.14-.55-.7-.88-1.26-.74-.55.14-.88.7-.74,1.26.8,3.09,3.96,4.95,7.04,4.15,2.69-.7,4.45-3.18,4.33-5.85-.02-.4-.08-.8-.18-1.19-.53-2.06-2.15-3.66-4.22-4.17-.55-.14-1.11.2-1.25.76Z"/>
  <path class="st0" d="M10.64,12.35c-.55-.14-1.11.2-1.25.76-.33,1.33-1.36,2.38-2.68,2.72-1.99.51-4.02-.68-4.53-2.67s.68-4.02,2.67-4.53c.55-.14.88-.7.74-1.26-.14-.55-.7-.88-1.26-.74C1.25,7.42-.61,10.59.19,13.67c.7,2.69,3.18,4.45,5.85,4.33.4-.02.8-.08,1.19-.18,2.06-.53,3.66-2.15,4.17-4.22.14-.55-.2-1.11-.76-1.25Z"/>
  <path class="st0" d="M11.65,10.64c.14-.55-.2-1.11-.76-1.25-1.33-.33-2.38-1.36-2.72-2.68-.51-1.99.68-4.02,2.67-4.53s4.02.68,4.53,2.67c.14.55.7.88,1.26.74.55-.14.88-.7.74-1.26C16.58,1.25,13.41-.61,10.33.19c-2.69.7-4.45,3.18-4.33,5.85.02.4.08.8.18,1.19.53,2.06,2.15,3.66,4.22,4.17.55.14,1.11-.2,1.25-.76Z"/>
  <path class="st0" d="M13.36,11.65c.55.14,1.11-.2,1.25-.76.33-1.33,1.36-2.38,2.68-2.72,1.99-.51,4.02.68,4.53,2.67s-.68,4.02-2.67,4.53c-.55.14-.88.7-.74,1.26.14.55.7.88,1.26.74,3.09-.8,4.95-3.96,4.15-7.04-.7-2.69-3.18-4.45-5.85-4.33-.4.02-.8.08-1.19.18-2.06.53-3.66,2.15-4.17,4.22-.14.55.2,1.11.76,1.25Z"/>
</svg>