<?xml version="1.0" encoding="UTF-8"?>
<svg id="Layer_1" xmlns="http://www.w3.org/2000/svg" version="1.1" viewBox="0 0 26 26">
  <!-- Generator: Adobe Illustrator 30.1.0, SVG Export Plug-In . SVG Version: 2.1.1 Build 136)  -->
  <defs>
    <style>
      .st0 {
        fill: #fff;
      }
    </style>
  </defs>
  <path class="st0" d="M24.52,25.93H1.89c-1.53-.01-1.6-1.42-1.77-2.41-.1-.55-.03-1.03.02-1.6.18-2.03,1.11-3.85,2.48-5.36.97-1.07,2.15-1.82,3.38-2.57,2.5-1.52,5.39-3.35,6.45-6.25-.31-.17-.5-.38-.58-.68-.08-.33-.01-.65.2-.96-1.55-.43-2.58-1.76-2.51-3.41.7,1.03,1.83,1.54,3.01,1.28,1.11-.25,2.03-1.22,2.1-2.44.04-.59-.05-1.07-.31-1.61,1.27.63,1.95,1.99,1.77,3.38-.16,1.29-1.09,2.43-2.52,2.8.55.45.2,1.06-.05,1.48.38,2.14,3.1,4.31,4.87,5.43l3.35,2.13c2.42,1.54,4.53,5.42,4.08,8.29-.12.77-.19,2.48-1.36,2.48l.02.02Z"/>
  <path class="st0" d="M20.83,19.67l-.05,5.01c0,.83-.83,1.33-1.61,1.33l-12.65-.04c-.69,0-1.31-.78-1.31-1.39l-.03-4.92c-1.41-.62-.98-1.89-1.04-3.46-.03-.68.36-1.31.98-1.56.36-.15.71-.16,1.13-.14.27-3.32,2.88-5.91,6.18-6.21v-1.19c-1.57-.53-2.6-1.98-2.55-3.62S11.09.44,12.71.04c.26-.06.46-.06.64.14.13.15.25.44.06.63-.49.48-.86,1.12-.8,1.83.07.88.64,1.58,1.38,1.82.88.29,1.69,0,2.28-.65.16-.17.55-.12.7,0,.2.16.23.44.15.71-.46,1.6-1.86,2.8-3.55,2.73v1.05c3.36.3,5.91,2.91,6.24,6.23.9-.15,1.9.31,2.02,1.23.11.86.02,1.73.03,2.6,0,.6-.45,1.08-1.01,1.32ZM14.23,5.61c-1.76-.25-2.94-1.84-2.68-3.63-.85,1.04-.74,2.53.18,3.45s2.42,1.03,3.4.18c-.36.04-.56.04-.89,0ZM18.7,14.48c-.3-2.78-2.47-4.86-5.13-5.11-.4-.07-.72-.07-1.12,0-2.71.26-4.83,2.4-5.11,5.11h11.36ZM20.81,15.6H5.26v3.07h15.56v-3.07ZM19.77,19.78H6.3v5.1h13.47v-5.1Z"/>
</svg>