<?xml version="1.0" encoding="UTF-8"?>
<svg id="Layer_1" xmlns="http://www.w3.org/2000/svg" version="1.1" viewBox="0 0 26 26">
  <!-- Generator: Adobe Illustrator 30.1.0, SVG Export Plug-In . SVG Version: 2.1.1 Build 136)  -->
  <defs>
    <style>
      .st0 {
        fill: #fff;
      }
    </style>
  </defs>
  <path class="st0" d="M25.66,22.7c-.05-.26-.65-.21-.94-.32,1.54-5.59-1.57-9.02-6.15-11.57l-4.99-2.78-5.34,3.01c-4.4,2.48-7.27,6.03-5.76,11.37-.76.15-1.41-.06-2.09.17-.12.37-.43,3.43.3,3.43l24.97-.02c.16-1.17.18-2.22,0-3.27Z"/>
  <path class="st0" d="M12.24,7.05c.79.54,1.89.55,2.65-.11.17-.14.17-.45.03-.59-.48-.48-1.21.7-2.23-.09-.33-.25-.6-.77-.44-1.32.35-1.24,1.5-.82,1.66-1.27.08-.22-.04-.58-.35-.6-1.02-.08-1.86.67-2.11,1.42-.35,1.04.02,2.04.8,2.57Z"/>
  <path class="st0" d="M1.16,7.6l.05,10.77c.88-3.81,2.74-5.6,6.05-7.75.13-1,.13-1.92-.03-3.01H1.16Z"/>
  <path class="st0" d="M7.29,6.57c.75-1.13.2-3.15-.82-4.04C5.54,1.73,4.93.98,4.09,0,2.51,2.47-.25,3.08.94,6.7c2.15-.12,4.3.21,6.34-.13Z"/>
</svg>