<?xml version="1.0" encoding="UTF-8"?>
<svg id="Layer_1" xmlns="http://www.w3.org/2000/svg" version="1.1" viewBox="0 0 26 26">
  <!-- Generator: Adobe Illustrator 30.1.0, SVG Export Plug-In . SVG Version: 2.1.1 Build 136)  -->
  <defs>
    <style>
      .st0 {
        fill: #fff;
      }
    </style>
  </defs>
  <path class="st0" d="M20.74,14.89c0,.2-.29.5-.49.5H5.75c-.2,0-.49-.3-.49-.47.03-1.03-.08-2,.02-3.01.37-3.66,3.33-6.54,7.02-6.87l.02-1.55c-.58-.31-1-.83-1.11-1.34-.15-.71,0-1.34.44-1.84.27-.31.67-.41,1-.17.3.22.41.69.12,1s-.31.66-.04.95.68.29.99,0c.28-.26.7-.2.96.04.27.26.23.73-.04.99s-.55.45-.94.5v1.43c3.68.32,6.65,3.19,7.04,6.88.1.98-.01,1.93.02,2.98ZM18.46,13.35c.58-.03.66-.53.64-.97-.21-3.24-2.88-5.76-6.13-5.71-.35,0-.62.29-.64.61-.01.24.22.67.57.67,2.57-.01,4.78,1.94,4.86,4.54.01.42.19.88.7.85Z"/>
  <path class="st0" d="M16.3,26h-6.61c-2.46,0-4.46-2-4.46-4.46v-6.92c0-.59.48-1.06,1.06-1.06s1.06.48,1.06,1.06v6.92c0,1.29,1.05,2.33,2.33,2.33h6.61c1.29,0,2.33-1.05,2.33-2.33v-6.92c0-.59.48-1.06,1.06-1.06s1.06.48,1.06,1.06v6.92c0,2.46-2,4.46-4.46,4.46Z"/>
  <path class="st0" d="M15.62,25.06c-.59,0-1.06-.48-1.06-1.06v-3.32c0-.86-.7-1.55-1.55-1.55s-1.55.7-1.55,1.55v3.32c0,.59-.48,1.06-1.06,1.06s-1.06-.48-1.06-1.06v-3.32c0-2.03,1.65-3.68,3.68-3.68s3.68,1.65,3.68,3.68v3.32c0,.59-.48,1.06-1.06,1.06Z"/>
</svg>