<?xml version="1.0" encoding="UTF-8"?>
<svg id="Layer_1" xmlns="http://www.w3.org/2000/svg" version="1.1" viewBox="0 0 26 26">
  <!-- Generator: Adobe Illustrator 30.1.0, SVG Export Plug-In . SVG Version: 2.1.1 Build 136)  -->
  <defs>
    <style>
      .st0 {
        fill: #fff;
      }
    </style>
  </defs>
  <path class="st0" d="M24.68,21.96c-.04-.24-.6-.2-.87-.3,1.43-5.16-1.45-8.32-5.67-10.68l-4.61-2.57-4.93,2.78c-4.06,2.28-6.71,5.56-5.32,10.49-.7.14-1.3-.05-1.93.16-.11.34-.4,3.16.27,3.16l23.05-.02c.15-1.08.17-2.05,0-3.02Z"/>
  <path class="st0" d="M12.3,7.51c.73.5,1.74.51,2.45-.1.15-.13.16-.41.03-.54-.45-.45-1.12.65-2.06-.09-.3-.24-.55-.71-.41-1.22.33-1.15,1.38-.76,1.53-1.17.07-.2-.03-.53-.33-.56-.94-.08-1.72.61-1.95,1.31-.32.96.02,1.88.73,2.37Z"/>
  <path class="st0" d="M2.07,8.02l.05,9.94c.81-3.52,2.53-5.17,5.58-7.15.12-.92.12-1.78-.03-2.78H2.07Z"/>
  <path class="st0" d="M7.72,7.06c.69-1.04.19-2.91-.76-3.73-.85-.74-1.41-1.43-2.19-2.33C3.32,3.28.77,3.84,1.87,7.18c1.99-.11,3.97.19,5.86-.12Z"/>
</svg>