<?xml version="1.0" encoding="UTF-8"?>
<svg id="Layer_1" xmlns="http://www.w3.org/2000/svg" version="1.1" viewBox="0 0 26 26">
  <!-- Generator: Adobe Illustrator 30.1.0, SVG Export Plug-In . SVG Version: 2.1.1 Build 136)  -->
  <defs>
    <style>
      .st0 {
        fill: #fff;
      }
    </style>
  </defs>
  <path class="st0" d="M20.83,19.66l-.05,5.01c0,.83-.83,1.33-1.61,1.33l-12.65-.04c-.69,0-1.31-.78-1.31-1.39l-.03-4.92c-1.41-.62-.98-1.89-1.04-3.46-.03-.68.36-1.31.98-1.56.36-.15.71-.16,1.13-.14.27-3.32,2.88-5.91,6.18-6.21v-1.19c-1.57-.53-2.6-1.98-2.55-3.62S11.09.43,12.71.03c.26-.06.46-.06.64.14.13.15.25.44.06.63-.49.48-.86,1.12-.8,1.83.07.88.64,1.58,1.38,1.82.88.29,1.69,0,2.28-.65.16-.17.55-.12.7,0,.2.16.23.44.15.71-.46,1.6-1.86,2.8-3.55,2.73v1.05c3.36.3,5.91,2.91,6.24,6.23.9-.15,1.9.31,2.02,1.23.11.86.02,1.73.03,2.6,0,.6-.45,1.08-1.01,1.32h-.02ZM14.23,5.6c-1.76-.25-2.94-1.84-2.68-3.63-.85,1.04-.74,2.53.18,3.45s2.42,1.03,3.4.18c-.36.04-.56.04-.89,0h0ZM18.7,14.47c-.3-2.78-2.47-4.86-5.13-5.11-.4-.07-.72-.07-1.12,0-2.71.26-4.83,2.4-5.11,5.11h11.36ZM20.81,15.59H5.26v3.07h15.56v-3.07h-.01ZM19.77,19.77H6.3v5.1h13.47v-5.1Z"/>
</svg>