<?xml version="1.0" encoding="UTF-8"?>
<svg id="Layer_1" xmlns="http://www.w3.org/2000/svg" version="1.1" viewBox="0 0 26 26">
  <!-- Generator: Adobe Illustrator 30.1.0, SVG Export Plug-In . SVG Version: 2.1.1 Build 136)  -->
  <defs>
    <style>
      .st0 {
        fill: #fff;
      }
    </style>
  </defs>
  <path class="st0" d="M24.63,13.91h-1.81c-.21,0-.36.18-.36.35,0,.22.16.37.38.36h1.87c.15,0,.22-.15.29-.24v-.23c-.08-.14-.19-.24-.37-.24Z"/>
  <path class="st0" d="M13,4.8c.19,0,.36-.15.36-.36v-1.81c0-.18-.1-.29-.24-.37h-.24c-.11.08-.23.16-.23.32v1.86c0,.21.16.35.35.36Z"/>
  <path class="st0" d="M3.54,14.27c0-.19-.15-.35-.36-.36h-1.78c-.19,0-.31.09-.4.24v.24c.09.15.21.24.39.24h1.79c.21,0,.36-.17.36-.36Z"/>
  <path class="st0" d="M2.73,8.74l1.61.93c.18.1.41,0,.49-.17.07-.17.02-.36-.17-.47l-1.56-.9c-.18-.1-.39-.04-.49.12-.1.16-.06.39.12.49Z"/>
  <path class="st0" d="M7.81,5.97c.1.17.33.18.46.1.16-.09.24-.3.13-.48l-.93-1.6c-.11-.18-.35-.21-.51-.1-.16.11-.19.32-.09.49l.93,1.59Z"/>
  <path class="st0" d="M4.34,18.86l-1.6.92c-.18.1-.24.33-.13.5.1.16.31.22.49.11l1.56-.9c.18-.1.24-.32.15-.48-.09-.17-.3-.26-.48-.15Z"/>
  <path class="st0" d="M17.75,6.08c.15.08.37.04.47-.14l.92-1.59c.1-.17.02-.38-.11-.46-.16-.1-.39-.08-.49.09l-.94,1.63c-.1.17-.01.39.16.48Z"/>
  <path class="st0" d="M21.69,9.66l1.57-.91c.18-.1.23-.31.14-.49-.08-.16-.3-.24-.48-.14l-1.6.92c-.18.1-.22.33-.13.48.1.17.31.23.49.13Z"/>
  <path class="st0" d="M23.27,19.78l-1.59-.92c-.18-.1-.4-.03-.49.14-.09.16-.04.38.13.48l1.6.92c.18.1.39.01.48-.14.09-.17.05-.38-.13-.48Z"/>
  <path class="st0" d="M19.85,12.18c-.21.69-.82,1.15-1.52,1.18-.71.03-1.35-.39-1.62-1.09-.41.49-1.02.73-1.67.59-.56-.12-1.04-.55-1.22-1.17-.51.5-1.22.65-1.87.35-.75.51-1.56.73-2.46.88l-.17.55c1.65,0,2.97.84,3.91,2.13.07.1.04.23-.04.29-.09.07-.23.06-.31-.04-.11-.14-.21-.29-.33-.41-.02-.03-.05-.05-.07-.08-.82-.96-2.1-1.56-3.39-1.45-.09,0-.16.02-.23-.05-.04-.04-.08-.12-.06-.21l.31-.97c.03-.1.1-.15.21-.17,1.36-.2,3.31-.78,3.21-2.52h-4.23s-.79-.03-.79-.03c-.25,0-.31.12-.42.39l-.72,1.78c-.36.88-.67,1.83-.1,2.69.17.26.36.47.6.67l3.75,3.18c.1.09.03.48.07.64h8.03s.07.04.07.02v-.94c.02-.07.05-.13.11-.18.09-.08.15-.18.23-.27.53-.6.91-1.47.9-2.29v-4.13c-.09.22-.12.44-.19.66Z"/>
  <path class="st0" d="M15.15,12.44c.64.14,1.28-.24,1.45-.89l.79-2.97c.18-.67-.25-1.34-.9-1.49-.65-.15-1.3.24-1.47.9l-.8,3.02c-.17.65.3,1.29.92,1.43Z"/>
  <path class="st0" d="M12.77,9.57c.11.05.16.14.18.27.1.69-.14,1.37-.63,1.87.68.18,1.33-.24,1.51-.91l.98-3.71c.17-.66-.31-1.3-.94-1.43-.64-.13-1.27.25-1.44.9l-.8,3h1.14Z"/>
  <path class="st0" d="M12.03,6.39c.17-.65-.26-1.3-.88-1.46-.64-.16-1.31.2-1.48.86l-1.01,3.77h2.53s.84-3.17.84-3.17Z"/>
  <path class="st0" d="M19.19,8.36c-.62-.18-1.33.16-1.5.82l-.61,2.28c-.17.65.28,1.3.9,1.45.65.15,1.3-.23,1.48-.89l.57-2.14c.17-.65-.2-1.32-.84-1.51Z"/>
  <path class="st0" d="M18.88,19.79c-.07,0-.14.02-.21.03h-7.8c-.2,0-.36,0-.56-.03v1.11s8.6,0,8.6,0v-1.05s0-.05-.03-.05Z"/>
  <path class="st0" d="M10.38,21.29s-.08-.01-.08.01v2.07c0,.19.11.3.26.37h8.09c.1-.07.23-.15.23-.29v-2.16s-2.94,0-2.94,0h-5.57Z"/>
</svg>