<?xml version="1.0" encoding="UTF-8"?>
<svg id="Layer_1" xmlns="http://www.w3.org/2000/svg" version="1.1" viewBox="0 0 26 26">
  <!-- Generator: Adobe Illustrator 30.1.0, SVG Export Plug-In . SVG Version: 2.1.1 Build 136)  -->
  <defs>
    <style>
      .st0 {
        fill: #fff;
      }
    </style>
  </defs>
  <path class="st0" d="M25.6,13.99h-1.96c-.23,0-.39.2-.39.38,0,.24.17.4.41.39h2.03c.16,0,.24-.16.31-.26v-.25c-.09-.15-.21-.26-.4-.26Z"/>
  <path class="st0" d="M13,4.12c.21,0,.39-.16.39-.39v-1.96c0-.2-.11-.31-.26-.4h-.26c-.12.09-.25.17-.25.35v2.01c0,.23.17.38.38.39Z"/>
  <path class="st0" d="M2.75,14.38c0-.21-.16-.38-.39-.39H.43C.23,13.99.1,14.08,0,14.25v.26c.1.16.23.26.42.26h1.94c.23,0,.39-.18.39-.39Z"/>
  <path class="st0" d="M1.87,8.38l1.74,1.01c.19.11.44,0,.53-.18.08-.18.02-.39-.18-.51l-1.69-.97c-.2-.11-.42-.04-.53.13-.11.17-.06.42.13.53Z"/>
  <path class="st0" d="M7.38,5.38c.11.18.36.19.5.11.17-.1.26-.33.14-.52l-1.01-1.73c-.12-.2-.38-.23-.55-.11-.17.12-.21.35-.1.53l1.01,1.72h.01Z"/>
  <path class="st0" d="M3.62,19.35l-1.73,1c-.2.11-.26.36-.14.54.11.17.34.24.53.12l1.69-.97c.19-.11.26-.35.16-.52-.1-.18-.33-.28-.52-.16h.01Z"/>
  <path class="st0" d="M18.15,5.5c.16.09.4.04.51-.15l1-1.72c.11-.18.02-.41-.12-.5-.17-.11-.42-.09-.53.1l-1.02,1.77c-.11.18-.01.42.17.52h-.01Z"/>
  <path class="st0" d="M22.41,9.38l1.7-.99c.2-.11.25-.34.15-.53-.09-.17-.32-.26-.52-.15l-1.73,1c-.2.11-.24.36-.14.52.11.18.34.25.53.14h.01Z"/>
  <path class="st0" d="M24.13,20.35l-1.72-1c-.2-.11-.43-.03-.53.15-.1.17-.04.41.14.52l1.73,1c.2.11.42.01.52-.15.1-.18.05-.41-.14-.52Z"/>
  <path class="st0" d="M20.42,12.11c-.23.75-.89,1.25-1.65,1.28-.77.03-1.46-.42-1.76-1.18-.44.53-1.11.79-1.81.64-.61-.13-1.13-.6-1.32-1.27-.55.54-1.32.7-2.03.38-.81.55-1.69.79-2.67.95l-.18.6c1.79,0,3.22.91,4.24,2.31.08.11.04.25-.04.31-.1.08-.25.07-.34-.04-.12-.15-.23-.31-.36-.44-.02-.03-.05-.05-.08-.09-.89-1.04-2.27-1.69-3.67-1.57-.1,0-.17.02-.25-.05-.04-.04-.09-.13-.07-.23l.34-1.05c.03-.11.11-.16.23-.18,1.47-.22,3.59-.84,3.48-2.73h-4.58l-.86-.03c-.27,0-.34.13-.46.42l-.78,1.93c-.39.95-.73,1.98-.11,2.91.18.28.39.51.65.73l4.06,3.45c.11.1.03.52.08.69h8.7s.08.04.08.02v-1.02c.02-.08.05-.14.12-.2.1-.09.16-.2.25-.29.57-.65.99-1.59.97-2.48v-4.47c-.1.24-.13.48-.21.71h.01Z"/>
  <path class="st0" d="M15.33,12.39c.69.15,1.39-.26,1.57-.96l.86-3.22c.2-.73-.27-1.45-.97-1.61-.7-.16-1.41.26-1.59.98l-.87,3.27c-.18.7.33,1.4,1,1.55h.01Z"/>
  <path class="st0" d="M12.75,9.28c.12.05.17.15.2.29.11.75-.15,1.48-.68,2.03.74.2,1.44-.26,1.64-.99l1.06-4.02c.18-.71-.34-1.41-1.02-1.55-.69-.14-1.38.27-1.56.98l-.87,3.25h1.24,0Z"/>
  <path class="st0" d="M11.95,5.84c.18-.7-.28-1.41-.95-1.58-.69-.17-1.42.22-1.6.93l-1.09,4.08h2.74s.91-3.43.91-3.43Z"/>
  <path class="st0" d="M19.71,7.97c-.67-.2-1.44.17-1.62.89l-.66,2.47c-.18.7.3,1.41.97,1.57.7.16,1.41-.25,1.6-.96l.62-2.32c.18-.7-.22-1.43-.91-1.64h0Z"/>
  <path class="st0" d="M19.37,20.36c-.08,0-.15.02-.23.03h-8.45c-.22,0-.39,0-.61-.03v1.2h9.32v-1.14s0-.05-.03-.05h0Z"/>
  <path class="st0" d="M10.16,21.98s-.09-.01-.09.01v2.24c0,.21.12.32.28.4h8.76c.11-.08.25-.16.25-.31v-2.34h-9.22.01Z"/>
</svg>