<?xml version="1.0" encoding="UTF-8"?>
<svg id="Layer_1" xmlns="http://www.w3.org/2000/svg" version="1.1" viewBox="0 0 26 26">
  <!-- Generator: Adobe Illustrator 30.1.0, SVG Export Plug-In . SVG Version: 2.1.1 Build 136)  -->
  <defs>
    <style>
      .st0 {
        fill: #fff;
      }
    </style>
  </defs>
  <g>
    <circle class="st0" cx="13" cy="5.4" r="4.29"/>
    <g>
      <path class="st0" d="M21.77,19.19l-1.9-9.26c-.35-.54-1.26-.79-1.78-.85l-4.31,10.11h3.69v-4.49c0-.09.04-.18.1-.24,0,0,0,0,0-.01,0,0,.02-.02.03-.02,0,0,0,0,.01,0,.05-.03.11-.05.17-.05.18,0,.33.15.33.33v4.49h3.65Z"/>
      <path class="st0" d="M6.13,9.93l-1.9,9.26h3.65v-4.49c0-.18.14-.33.33-.33.06,0,.12.02.17.05,0,0,0,0,.01,0,.02,0,.03.01.03.02,0,0,0,0,0,.01.06.06.1.14.1.24v4.49h3.69l-4.31-10.11c-.51.06-1.43.31-1.78.85Z"/>
      <path class="st0" d="M13,19.7l4.43-10.36c.06-.15.07-.28.05-.36-.02-.08-.13-.13-.21-.14l-4.23,2.81s-.02-.01-.03-.02h0s0,0,0,0h0s0,0,0,0c-.01,0-.02.01-.03.02l-4.23-2.81c-.08.02-.19.06-.21.14-.03.08-.02.21.05.36l4.43,10.36h0s0,0,0,0h0s0,0,0,0Z"/>
    </g>
  </g>
  <path class="st0" d="M6.07,19.81h13.85c2.8,0,5.07,2.27,5.07,5.07H1c0-2.8,2.27-5.07,5.07-5.07Z"/>
</svg>