<?xml version="1.0" encoding="UTF-8"?>
<svg id="Layer_1" xmlns="http://www.w3.org/2000/svg" version="1.1" viewBox="0 0 26 26">
  <!-- Generator: Adobe Illustrator 30.1.0, SVG Export Plug-In . SVG Version: 2.1.1 Build 136)  -->
  <defs>
    <style>
      .st0 {
        fill: #fff;
      }
    </style>
  </defs>
  <g id="PjEWtI.tif">
    <g>
      <path class="st0" d="M26,25.44H0v-.15l2.71-8.63h2.86c.35.01.58.3.62.59s-.19.6-.5.68h-2.05s-1.93,6.24-1.93,6.24h22.54s-1.29-3.86-1.29-3.86l-.81-2.39h-1.53c-.32-.01-.54-.34-.53-.63s.23-.61.56-.62l2.42-.03.59,1.75,1.96,5.85c.14.42.31.79.39,1.19Z"/>
      <path class="st0" d="M13.01,22.19c-.94-.56-1.76-1.21-2.58-1.9-.21-.17-.36-.38-.58-.54-.13-.1-.2-.2-.31-.31l-.75-.78c-1.79-1.87-3.7-5.53-3.89-8.15l-.06-.81c-.02-.33-.01-.59,0-.92.09-2.19.93-4.27,2.53-5.75C9.86.74,13.31-.2,16.45,1.27c.72.34,1.35.79,1.95,1.29.78.65,1.55,1.73,1.95,2.67.44,1.01.68,2.05.75,3.15.26,3.93-1.48,7.97-4.09,10.86-1.04,1.14-2.25,2.19-3.59,2.96-.1.06-.3.06-.42-.01ZM19.32,8.81c0-3.5-2.83-6.33-6.33-6.33s-6.33,2.83-6.33,6.33,2.83,6.33,6.33,6.33,6.33-2.83,6.33-6.33Z"/>
    </g>
  </g>
</svg>