<?xml version="1.0" encoding="UTF-8"?>
<svg id="Layer_1" xmlns="http://www.w3.org/2000/svg" version="1.1" viewBox="0 0 26 26">
  <!-- Generator: Adobe Illustrator 30.1.0, SVG Export Plug-In . SVG Version: 2.1.1 Build 136)  -->
  <defs>
    <style>
      .st0 {
        fill: #fff;
      }
    </style>
  </defs>
  <path class="st0" d="M18.63,0L5.01.06v21.79s2.58.12,2.58.12l.07,4.04,1.96-1.63c.72.62,1.17,1.2,1.85,1.61l.1-4.08,9.43-.07V.15C20.2-.02,19.47,0,18.63,0ZM9.05,5.01l2.36-.11c.74-.04,1.08-1.21,1.82-1.56,2.51,1.99.48,1.51,4.13,1.67.22,3.6-.44,1.57,1.76,4.19-2.21,2.59-1.53.59-1.77,4.2l-2.36.14c-.71.04-1.07,1.15-1.79,1.58-.75-.35-1.1-1.54-1.85-1.58l-2.33-.15c-.11-3.44.35-1.67-1.71-4.1,1.98-2.62,1.58-.41,1.73-4.28ZM7.23,17.17h11.53v.89H7.23v-.89ZM20.47,21.44l-8.85-.02c-.16-.33-.11-.62-.15-1.03l-3.76-.02-.18.99c-.04.2-.84.11-.91-.11-.15-.55-.02-1.18-.02-1.95h13.9c.17.76.22,1.45-.02,2.15Z"/>
  <path class="st0" d="M17.99,9.19l-1.27-1.47c-.41-.48.07-1.35-.14-1.93-.62-.22-1.5.26-1.97-.15l-1.39-1.23c-.58.34-.86,1.21-1.47,1.25l-1.93.12c-.13,3.14.12,1.4-1.41,3.49,1.85,2.1,1.16.51,1.43,3.32.6.19,1.42-.25,1.88.14l1.5,1.25c2.07-1.82.6-1.11,3.35-1.39.18-.61-.28-1.48.14-1.96l1.26-1.44ZM15.67,11.67c-1.86.31-.77-.49-2.54,1.09-.54-.84-1.27-1.23-2.32-.98l-.17-1.48-.92-1.07c1.14-1.51.88-.22,1.04-2.49l1.34-.08c.47-.03.65-.74,1.11-.93l1.06.89c.33.28.9-.01,1.34.11.34,2.07-.32.81,1.08,2.44-1.14,1.53-.93.22-1.03,2.49Z"/>
</svg>