<?xml version="1.0" encoding="UTF-8"?>
<svg id="Layer_1" xmlns="http://www.w3.org/2000/svg" version="1.1" viewBox="0 0 26 26">
  <!-- Generator: Adobe Illustrator 30.1.0, SVG Export Plug-In . SVG Version: 2.1.1 Build 136)  -->
  <defs>
    <style>
      .st0 {
        fill: #060606;
      }

      .st1 {
        fill: #131313;
      }
    </style>
  </defs>
  <path class="st0" d="M12.99,5.68c-.48.67-1,1.17-1.68,1.6-2.25,1.48-4.38,2.97-3.02,6.04-1.21.76-2.29,1.97-2.3,3.43l-.07,9.23c-.5.01-.95.04-1.46-.04l.06-15.62c0-2.59,2.12-4.6,4.18-5.83,1.98-1.32,3.51-2,4.3-4.49.39,1.4,1.17,2.4,2.3,3.17l3.26,2.21c1.79,1.21,2.93,3.05,2.95,5.24l.04,7.24v8.11c-.51.03-.93.03-1.46,0l-.06-8.77c-.01-1.67-.9-3.06-2.36-3.87.81-1.48.47-3.12-.68-4.27-.66-.66-1.43-1.12-2.19-1.66-.67-.47-1.26-.89-1.8-1.7Z"/>
  <path class="st1" d="M7.26,25.91c-.23.15-.53.07-.84.05l-.02-8.4c0-.6-.02-1.18.22-1.7.4-.88.98-1.61,1.84-2.09.15-.09.47.27.4.44-.73.47-1.56,1.24-1.57,2.25l-.04,9.46Z"/>
  <path class="st1" d="M18.76,25.96v-8.9c-.01-1.23-.6-2.28-1.7-2.87.05-.18.19-.34.39-.46,1.18.64,2.12,1.9,2.12,3.35l.03,8.88c-.31.03-.5.04-.84,0Z"/>
</svg>