<?xml version="1.0" encoding="UTF-8"?>
<svg id="Layer_1" xmlns="http://www.w3.org/2000/svg" version="1.1" viewBox="0 0 26 26">
  <!-- Generator: Adobe Illustrator 30.1.0, SVG Export Plug-In . SVG Version: 2.1.1 Build 136)  -->
  <defs>
    <style>
      .st0 {
        fill: #fff;
      }
    </style>
  </defs>
  <path class="st0" d="M20.9,26H5.11c-.84-.19-1.43-.8-1.54-1.62v-1.17c.15-1.02,1.06-1.76,2.1-1.62v-6.67c-1.4-1.71-2.02-3.57-1.84-5.76.25-2.42,1.61-4.48,3.64-5.78L12.43.21c.43-.27.94-.28,1.37,0l4.96,3.17c2.04,1.3,3.39,3.36,3.64,5.78.18,2.17-.44,4.07-1.84,5.76v6.66c.92-.01,1.65.64,1.85,1.54v1.36c-.17.78-.69,1.32-1.51,1.53ZM18.72,14.48c0-.42.4-.67.55-.99,1.94-2.42,1.62-5.82-.65-7.88-.44-.36-.87-.63-1.35-.94l-4.16-2.67-4.63,2.96c-1.55.99-2.61,2.54-2.76,4.4-.2,1.36.35,3.06,1.24,4.12.17.33.55.6.55,1.01l.02,7.08h11.16s.02-7.1.02-7.1Z"/>
</svg>