<?xml version="1.0" encoding="UTF-8"?>
<svg id="Layer_1" xmlns="http://www.w3.org/2000/svg" version="1.1" viewBox="0 0 300 300">
  <!-- Generator: Adobe Illustrator 30.1.0, SVG Export Plug-In . SVG Version: 2.1.1 Build 136)  -->
  <defs>
    <style>
      .st0 {
        fill: teal;
      }
    </style>
  </defs>
  <path class="st0" d="M153.93,165.42c-1.59,6.26,2.27,12.63,8.64,14.22,15.13,3.75,27.07,15.47,30.94,30.48,5.8,22.64-7.73,45.73-30.37,51.53-22.64,5.8-45.73-7.73-51.53-30.37-1.59-6.26-7.96-10.01-14.33-8.42-6.26,1.59-10.01,7.96-8.42,14.33,9.1,35.15,45.04,56.3,80.08,47.2,30.6-7.96,50.62-36.17,49.25-66.54-.23-4.55-.91-9.1-2.05-13.54-6.03-23.43-24.45-41.63-48-47.43-6.26-1.59-12.63,2.27-14.22,8.64v-.11Z"/>
  <path class="st0" d="M134.48,153.93c-6.26-1.59-12.63,2.27-14.22,8.64-3.75,15.13-15.47,27.07-30.48,30.94-22.64,5.8-45.73-7.73-51.53-30.37-5.8-22.64,7.73-45.73,30.37-51.53,6.26-1.59,10.01-7.96,8.42-14.33-1.59-6.26-7.96-10.01-14.33-8.42-35.03,8.99-56.19,45.04-47.09,80.08,7.96,30.6,36.17,50.62,66.54,49.25,4.55-.23,9.1-.91,13.54-2.05,23.43-6.03,41.63-24.45,47.43-48,1.59-6.26-2.27-12.63-8.64-14.22Z"/>
  <path class="st0" d="M145.97,134.48c1.59-6.26-2.27-12.63-8.64-14.22-15.13-3.75-27.07-15.47-30.94-30.48-5.8-22.64,7.73-45.73,30.37-51.53,22.64-5.8,45.73,7.73,51.53,30.37,1.59,6.26,7.96,10.01,14.33,8.42,6.26-1.59,10.01-7.96,8.42-14.33-8.99-35.03-45.04-56.19-80.08-47.09-30.6,7.96-50.62,36.17-49.25,66.54.23,4.55.91,9.1,2.05,13.54,6.03,23.43,24.45,41.63,48,47.43,6.26,1.59,12.63-2.27,14.22-8.64Z"/>
  <path class="st0" d="M165.42,145.97c6.26,1.59,12.63-2.27,14.22-8.64,3.75-15.13,15.47-27.07,30.48-30.94,22.64-5.8,45.73,7.73,51.53,30.37,5.8,22.64-7.73,45.73-30.37,51.53-6.26,1.59-10.01,7.96-8.42,14.33,1.59,6.26,7.96,10.01,14.33,8.42,35.15-9.1,56.3-45.04,47.2-80.08-7.96-30.6-36.17-50.62-66.54-49.25-4.55.23-9.1.91-13.54,2.05-23.43,6.03-41.63,24.45-47.43,48-1.59,6.26,2.27,12.63,8.64,14.22h-.11Z"/>
</svg>