<?xml version="1.0" encoding="UTF-8"?>
<svg id="Layer_1" xmlns="http://www.w3.org/2000/svg" version="1.1" viewBox="0 0 26 26">
  <!-- Generator: Adobe Illustrator 30.1.0, SVG Export Plug-In . SVG Version: 2.1.1 Build 136)  -->
  <defs>
    <style>
      .st0 {
        fill: #fff;
      }
    </style>
  </defs>
  <g>
    <path class="st0" d="M23.3,15.75c-.14-.92-1.31-1.38-2.36-1.23-.39-3.32-3.36-5.93-7.28-6.23h-1.33c-3.85.3-6.9,2.89-7.21,6.21-.49-.02-.9-.01-1.32.14-.72.25-1.18.88-1.14,1.56.07,1.57-.43,2.84,1.21,3.46l.04,4.92c0,.61.72,1.39,1.53,1.39l14.76.04c.91,0,1.88-.5,1.88-1.33l.06-5h.02c.65-.24,1.18-.72,1.18-1.32-.01-.87.09-1.74-.03-2.6h0ZM12.35,9.36c.47-.07.84-.07,1.31,0,3.1.25,5.64,2.33,5.99,5.11H6.39c.33-2.71,2.8-4.85,5.96-5.11ZM20.9,24.87H5.18v-5.1h15.72v5.1ZM22.12,18.66H3.96v-3.07h18.16s0,3.07,0,3.07Z"/>
    <path class="st0" d="M16.97,3.8c-.15-.12-.54-.17-.7,0-.59.65-1.4.94-2.28.65-.74-.24-1.31-.94-1.38-1.82-.06-.71.31-1.35.8-1.83.19-.19.07-.48-.06-.63-.18-.2-.38-.2-.64-.14-1.62.4-2.78,1.8-2.83,3.44-.05,1.64.98,3.09,2.55,3.62v1.19h1.14v-1.04c1.69.07,3.09-1.13,3.55-2.73.08-.27.05-.55-.15-.71ZM11.73,5.42c-.92-.92-1.03-2.41-.18-3.45-.26,1.79.92,3.38,2.68,3.63h.01c.33.04.53.04.89,0-.98.85-2.48.74-3.4-.18Z"/>
  </g>
  <rect class="st0" x="3.96" y="15.59" width="18.16" height="3.07"/>
</svg>