<?xml version="1.0" encoding="UTF-8"?>
<svg id="Layer_1" xmlns="http://www.w3.org/2000/svg" version="1.1" viewBox="0 0 26 26">
  <!-- Generator: Adobe Illustrator 30.1.0, SVG Export Plug-In . SVG Version: 2.1.1 Build 136)  -->
  <defs>
    <style>
      .st0 {
        fill: #fff;
      }
    </style>
  </defs>
  <path class="st0" d="M22.6,16.97c-.03-5.39-3.74-10.14-9.59-12.92C7.13,6.79,3.42,11.58,3.37,16.87l-.08,8.98c-1.11.18-2.13.21-3.29-.02v-12.83C0,5.82,5.82,0,13,0h0c7.18,0,13,5.82,13,13v12.82c-1.13.24-2.16.24-3.34,0l-.06-8.86Z"/>
  <path class="st0" d="M17.96,25.96l-9.91.04c0-6.05-1.21-10.92,4.94-15,3.12,1.97,4.96,5.09,4.96,8.51v6.45Z"/>
</svg>